<?xml version="1.0" encoding="utf-8"?>
<!-- Generator: Adobe Illustrator 24.2.3, SVG Export Plug-In . SVG Version: 6.00 Build 0)  -->
<svg version="1.1" xmlns="http://www.w3.org/2000/svg" xmlns:xlink="http://www.w3.org/1999/xlink" x="0px" y="0px"
	 viewBox="0 0 186.7 125.3" style="enable-background:new 0 0 186.7 125.3;" xml:space="preserve">
<style type="text/css">
	.st0{fill:#0069B4;}
	.st1{fill:#EF7D00;}
</style>
<g id="Background">
</g>
<g id="Guides">
</g>
<g id="Foreground">
	<g>
		<path class="st0" d="M118.3,8.2c1.8-3.1-1.3-6.6-6.8-7.8C106-0.8,100,0.7,97.9,3.7L27.4,108.5c-4,5.9-1.5,13.3,6.1,15.9
			c7.7,2.6,17.1-0.6,20.9-7L118.3,8.2z"/>
		<path class="st0" d="M3.3,124.9c-3.3-1.2-4.3-4.5-2.2-7.3l40-55.1c3.3-4.5,0-8.5,0-8.5L4.7,9.3C2.4,6.4,5,2.7,10.5,0.9
			c5.4-1.7,11.7-1,14.2,1.8l36.9,40.5c0,0,3.1,3.4,0,8l-48.5,70.6C11.1,124.7,6.7,126.1,3.3,124.9z"/>
		<path class="st1" d="M166.6,0.2c-2.6-0.5-4,0-5.9,1.4L98,49.2c0,0-4.4,3.5,0.9,8.8l60.8,61.4c5.8,5.8,15.9,7.6,22.2,3.8
			c6.2-3.8,6.2-11.3,0.3-16.7l-62.6-57.6c-2.3-2.1-2.6-2.8-0.2-4.7l50.7-40.5C171.3,2.6,169.2,0.7,166.6,0.2z"/>
	</g>
</g>
</svg>
